<svg width="18" height="17" viewBox="0 0 18 17" fill="none" xmlns="http://www.w3.org/2000/svg">
<path d="M17.5442 6.42979C18.1519 7.46331 18.1519 8.73664 17.5442 9.77015L14.7453 14.5297C14.1375 15.5632 13.0144 16.2 11.7988 16.2H6.20113C4.98562 16.2 3.86244 15.5632 3.25468 14.5297L0.455819 9.77015C-0.15194 8.73664 -0.15194 7.46331 0.455819 6.42979L3.25468 1.67018C3.86244 0.636672 4.98562 0 6.20113 0H11.7988C13.0144 0 14.1375 0.636672 14.7453 1.67018L17.5442 6.42979Z" fill="#4487F9"/>
<path d="M14.4 12.7164L12.4309 10.6451C13.1052 9.80513 13.499 8.74258 13.499 7.62369C13.499 4.93778 11.3062 2.69995 8.54955 2.69995C5.79287 2.69995 3.59998 4.88143 3.59998 7.62369C3.59998 10.366 5.79287 12.5474 8.54955 12.5474C9.67427 12.5474 10.7424 12.1557 11.5867 11.4849L13.499 13.5L14.4 12.7164ZM8.60616 11.3722C6.52385 11.3722 4.83803 9.69251 4.83803 7.62369C4.83803 5.55492 6.52655 3.87521 8.60616 3.87521C10.6858 3.87521 12.3743 5.55492 12.3743 7.62369C12.3743 9.69251 10.6292 11.3722 8.60616 11.3722Z" fill="white"/>
<path d="M8.99998 6.67514C8.99998 6.46799 8.79844 6.30005 8.54995 6.30005C8.30146 6.30005 8.09998 6.46798 8.09998 6.67514V9.52492C8.09998 9.73206 8.30146 9.90005 8.54995 9.90005C8.79844 9.90005 8.99998 9.73206 8.99998 9.52492V6.67514Z" fill="white"/>
<path d="M6.5 9.40684C6.5 9.51089 6.55267 9.61076 6.64644 9.68428C6.96143 9.93147 7.5 9.75643 7.5 9.40684V8.39239C7.5 8.17566 7.27614 8 6.99999 8C6.72385 8 6.5 8.17566 6.5 8.39239V9.40684Z" fill="white"/>
<path d="M9.5 9.50681C9.5 9.61087 9.5474 9.71073 9.6318 9.78425C9.91528 10.0314 10.4 9.85641 10.4 9.50681V8.49236C10.4 8.27564 10.1985 8.09998 9.94999 8.09998C9.70146 8.09998 9.5 8.27564 9.5 8.49236V9.50681Z" fill="white"/>
</svg>
