<svg width="24" height="24" viewBox="0 0 24 24" fill="none" xmlns="http://www.w3.org/2000/svg">
<path d="M16.7607 16.7886C16.8791 15.7432 16.8396 15.5854 17.6286 15.7629L17.8259 15.7826C18.4176 15.8023 19.2066 15.684 19.6603 15.467C20.6465 15.0133 21.2383 14.2441 20.252 14.4413C18.0231 14.895 17.8653 14.1454 17.8653 14.1454C20.2126 10.6541 21.1988 6.21598 20.3507 5.1311C18.0626 2.19208 14.0584 3.57283 13.9795 3.61228H13.9598C13.5258 3.51365 13.0327 3.4742 12.4804 3.45448C11.4744 3.43475 10.7051 3.7109 10.1331 4.16458C10.1331 4.16458 2.99266 1.22555 3.30826 7.87288C3.38716 9.29308 5.33993 18.5835 7.66748 15.7629C8.51566 14.7372 9.34411 13.8693 9.34411 13.8693C9.75833 14.1454 10.2515 14.2835 10.7643 14.2243L10.8038 14.1849C10.784 14.3032 10.8038 14.4413 10.8235 14.5794C10.2317 15.25 10.3895 15.3684 9.20603 15.6248C7.98308 15.8812 8.71291 16.3152 9.16658 16.4335C9.73861 16.5716 11.0405 16.7689 11.9281 15.5459L11.8886 15.684C12.1253 15.8812 12.1056 17.045 12.1451 17.8735C12.1845 18.7019 12.2437 19.4909 12.4015 19.9446C12.579 20.3983 12.7763 21.5818 14.3543 21.2464C15.6561 20.99 16.6818 20.5758 16.7607 16.7886Z" fill="black"/>
<path d="M20.2718 14.4413C18.0428 14.895 17.885 14.1454 17.885 14.1454C20.2323 10.6541 21.2186 6.21597 20.3704 5.1311C18.0626 2.19208 14.0584 3.57283 13.9795 3.61228H13.9598C13.5258 3.51365 13.0327 3.4742 12.4804 3.45448C11.4744 3.43475 10.7051 3.7109 10.1331 4.16458C10.1331 4.16458 2.99266 1.22555 3.30826 7.87287C3.38716 9.29307 5.33993 18.5835 7.66748 15.7629C8.51566 14.7372 9.34411 13.8693 9.34411 13.8693C9.75833 14.1454 10.2515 14.2835 10.7643 14.2243L10.8038 14.1849C10.784 14.3032 10.8038 14.4413 10.8235 14.5794C10.2317 15.25 10.3895 15.3684 9.20603 15.6248C7.98308 15.8812 8.71291 16.3152 9.16658 16.4335C9.73861 16.5716 11.0405 16.7688 11.9281 15.5459L11.8886 15.684C12.1253 15.8812 12.2831 16.9069 12.2634 17.8537C12.2437 18.8005 12.224 19.4514 12.4015 19.9446C12.579 20.4574 12.7763 21.5817 14.3543 21.2464C15.6758 20.9703 16.3662 20.2207 16.4451 18.9978C16.5043 18.1299 16.6621 18.2482 16.6818 17.4789L16.8002 17.1042C16.9382 15.9207 16.8199 15.5459 17.6286 15.7234L17.8259 15.7431C18.4176 15.7629 19.2066 15.6445 19.6603 15.4275C20.6663 15.0133 21.258 14.2441 20.2718 14.4413Z" fill="#336791"/>
<path d="M13.9006 21.6409C12.579 21.6409 12.145 20.5955 11.9872 20.1616C11.7308 19.5304 11.6716 17.1634 11.7308 15.112C11.7308 14.9542 11.8689 14.8358 12.007 14.8358C12.1648 14.8358 12.2831 14.9739 12.2831 15.112C12.2239 17.4198 12.3226 19.4909 12.5001 19.9446C12.7762 20.6547 13.2102 21.2859 14.4331 21.0097C15.6166 20.7533 16.0309 20.3391 16.2281 19.195C16.3859 18.3271 16.6818 15.8418 16.7212 15.3487C16.741 15.1909 16.8593 15.0922 17.0171 15.0922C17.1749 15.112 17.2735 15.2303 17.2735 15.3881C17.2341 15.901 16.9382 18.3666 16.7804 19.2739C16.5437 20.635 15.952 21.2464 14.5515 21.5423C14.3148 21.6212 14.0978 21.6409 13.9006 21.6409Z" fill="white"/>
<path d="M6.76009 16.5519C6.62201 16.5519 6.52339 16.5321 6.40504 16.4927C5.53714 16.1968 4.72841 14.8161 3.97886 12.3307C3.40684 10.4568 3.05179 8.50405 3.01234 7.85313C2.91371 5.95953 3.40684 4.61823 4.47199 3.86868C5.35961 3.23748 6.60229 3.04023 8.16056 3.29665C9.30461 3.47418 10.1725 3.82923 10.212 3.84895C10.35 3.90813 10.4289 4.06593 10.3698 4.204C10.3106 4.34208 10.1528 4.42098 10.0147 4.3618C9.97526 4.3618 6.62201 3.0205 4.78759 4.32235C3.89996 4.95355 3.48574 6.13705 3.56464 7.8334C3.58436 8.36598 3.93941 10.2793 4.51144 12.1729C5.18209 14.3624 5.93164 15.7431 6.60229 15.9601C6.70091 15.9996 7.01651 16.0982 7.45046 15.5656C8.29864 14.5399 9.08764 13.7312 9.08764 13.7115C9.18626 13.5931 9.36379 13.5931 9.48214 13.7115C9.60049 13.8101 9.60049 13.9876 9.48214 14.106C9.48214 14.106 8.71286 14.9147 7.86469 15.9207C7.47019 16.4138 7.07569 16.5519 6.76009 16.5519Z" fill="white"/>
<path d="M17.885 14.4018C17.8258 14.4018 17.7864 14.3821 17.7272 14.3624C17.6089 14.2835 17.5694 14.106 17.6483 13.9876C20.0153 10.4568 20.8635 6.21597 20.1534 5.30862C19.2658 4.16457 18.0034 3.57282 16.4056 3.53337C15.2221 3.51364 14.2753 3.80952 14.1175 3.86869C14.0978 3.86869 14.0978 3.88842 14.0781 3.88842C13.9203 3.94759 13.7822 3.84897 13.7428 3.75034C13.6836 3.63199 13.723 3.47419 13.8611 3.39529C13.9597 3.33612 15.0446 2.98107 16.3465 3.00079C18.1217 3.02052 19.6011 3.71089 20.6071 4.99302C20.8635 5.30862 20.9818 5.84119 20.9621 6.53157C20.9424 7.18249 20.824 7.97149 20.6071 8.81967C20.1337 10.6738 19.2263 12.6858 18.1217 14.3032C18.0428 14.3624 17.9639 14.4018 17.885 14.4018Z" fill="white"/>
<path d="M18.0034 16.0193C17.5891 16.0193 17.2341 15.9601 16.9974 15.822C16.7607 15.684 16.7212 15.4867 16.7212 15.3881C16.6621 14.3229 17.2341 14.1257 17.5497 14.0271C17.5102 13.9679 17.4511 13.9087 17.4116 13.8298C17.2341 13.6128 16.9974 13.2972 16.8001 12.8436C16.7804 12.7647 16.6818 12.6069 16.5832 12.4293C16.0111 11.4036 14.8079 9.2536 15.5772 8.149C15.9322 7.63615 16.6423 7.4389 17.668 7.53753C17.53 7.1233 17.1946 6.37375 16.5634 5.6242C15.7942 4.79575 14.4923 3.75033 12.4606 3.71088C11.4349 3.69115 10.5868 4.00675 9.93583 4.65768C8.51563 6.0976 8.55508 8.72103 8.55508 8.74075C8.55508 8.89855 8.43673 9.0169 8.27893 9.0169C8.12113 9.0169 8.00278 8.89855 8.00278 8.74075C8.00278 8.6224 7.94361 5.8609 9.54133 4.26318C10.2909 3.51363 11.2771 3.13885 12.4606 3.15858C14.6698 3.19803 16.1098 4.32235 16.9185 5.26915C17.8061 6.29485 18.2203 7.41918 18.2598 7.79395C18.2795 8.08983 18.0625 8.149 18.0231 8.16873H17.9245C16.6621 7.97148 16.1887 8.2279 15.9914 8.50405C15.4194 9.3325 16.5437 11.3445 17.0171 12.1926C17.1355 12.4096 17.2341 12.5674 17.2735 12.666C17.4313 13.0408 17.6286 13.2972 17.8061 13.5142C17.9442 13.6917 18.0823 13.8495 18.1217 14.0468C18.1414 14.0862 18.457 14.5005 20.1731 14.1454C20.6268 14.0468 20.9029 14.1257 20.9818 14.3821C21.1396 14.8752 20.2323 15.4473 19.7392 15.684C19.3249 15.9009 18.6148 16.0193 18.0034 16.0193ZM17.2735 15.3486C17.3327 15.4078 17.6286 15.4867 18.1809 15.467C18.6937 15.4473 19.2263 15.3289 19.5419 15.1908C19.9167 15.0133 20.1731 14.8358 20.3309 14.678C20.3309 14.678 20.3309 14.678 20.3112 14.678C19.1869 14.9147 18.3781 14.8752 17.9245 14.5794C17.9047 14.5596 17.8653 14.5399 17.8456 14.5202C17.8061 14.5399 17.7667 14.5399 17.7272 14.5596C17.4708 14.6385 17.2341 14.6977 17.2735 15.3486Z" fill="white"/>
<path d="M9.95553 16.8083C9.67938 16.8083 9.3835 16.7689 9.0679 16.69C8.989 16.6702 8.21973 16.4532 8.21973 15.9798C8.21973 15.5262 8.87065 15.3881 9.10735 15.3487C9.95553 15.1711 10.0147 15.1119 10.2711 14.7766C10.35 14.678 10.4487 14.5597 10.5867 14.4019C11.0207 13.9087 11.4546 14.0863 11.6322 14.1454C11.9083 14.2638 12.145 14.5399 12.2436 14.8752C12.3225 15.1711 12.2831 15.467 12.1253 15.7037C11.5927 16.4335 10.8432 16.8083 9.95553 16.8083ZM8.8312 15.9996C8.9101 16.0588 9.04818 16.1179 9.20598 16.1574C9.9358 16.3349 10.9615 16.3546 11.6716 15.3684C11.7505 15.25 11.7308 15.0922 11.7111 15.0133C11.6716 14.8555 11.5533 14.6977 11.4152 14.6386C11.2574 14.5794 11.1785 14.5399 11.001 14.7372C10.8826 14.8753 10.784 14.9936 10.7051 15.0725C10.3698 15.5064 10.212 15.6445 9.20598 15.8418C9.02845 15.9207 8.9101 15.9799 8.8312 15.9996Z" fill="white"/>
<path d="M10.7643 14.8358C10.6262 14.8358 10.5079 14.7372 10.4882 14.5991C10.4882 14.5596 10.4882 14.5202 10.4684 14.4807C9.81751 14.461 9.18631 14.1849 8.71291 13.6917C8.10144 13.0605 7.82528 12.1729 7.96336 11.2853C8.10143 10.3188 8.04226 9.47058 8.02254 9.0169C8.02254 8.89855 8.00281 8.79993 8.00281 8.74075C8.00281 8.66185 8.00281 8.42515 8.73263 8.0701C8.98906 7.93203 9.50191 7.71505 10.0542 7.65588C10.9813 7.55725 11.6125 7.97148 11.79 8.83938C12.2831 11.1275 11.8295 12.1335 11.4941 12.8633C11.435 13.0014 11.3758 13.1197 11.3363 13.2578L11.2969 13.3761C11.1194 13.8495 10.9813 14.244 11.0207 14.5399C11.0405 14.6977 10.9418 14.8358 10.784 14.8555C10.784 14.8358 10.784 14.8358 10.7643 14.8358ZM8.57483 8.81965C8.57483 8.8591 8.57483 8.91828 8.57483 8.99718C8.59456 9.47058 8.65373 10.3582 8.51566 11.3839C8.41703 12.1137 8.63401 12.8238 9.12713 13.3367C9.50191 13.7312 10.0148 13.9679 10.5276 13.9679C10.5868 13.7312 10.6854 13.455 10.784 13.1789L10.8235 13.0605C10.8827 12.9225 10.9418 12.7844 11.001 12.6266C11.3166 11.9165 11.7111 11.0486 11.2574 8.938C11.1785 8.52378 10.9616 8.28708 10.6065 8.20818C9.87668 8.05038 8.79181 8.6224 8.57483 8.81965Z" fill="white"/>
<path d="M10.0937 8.70127C10.0739 8.79989 10.2515 9.03659 10.4882 9.05632C10.7249 9.09577 10.9221 8.89852 10.9221 8.81962C10.9418 8.721 10.7643 8.62237 10.5276 8.60264C10.3106 8.56319 10.0937 8.62237 10.0937 8.70127Z" fill="white"/>
<path d="M10.5473 9.15495C10.5276 9.15495 10.5078 9.15495 10.4881 9.15495C10.35 9.13523 10.1922 9.0366 10.0936 8.91825C10.0542 8.8788 9.995 8.78018 10.0147 8.70128C10.0147 8.66183 10.0344 8.62238 10.0936 8.58293C10.1922 8.50403 10.3698 8.4843 10.567 8.52375C10.8037 8.5632 11.0601 8.68155 11.0404 8.85908C11.001 8.97743 10.784 9.15495 10.5473 9.15495ZM10.1922 8.721C10.212 8.78018 10.3303 8.9577 10.5078 8.97743C10.6854 8.99715 10.8234 8.85908 10.8432 8.81963C10.8234 8.7999 10.7248 8.721 10.5276 8.70128C10.3303 8.66183 10.212 8.70128 10.1922 8.721Z" fill="white"/>
<path d="M17.1551 8.5239C17.1749 8.62252 16.9973 8.85922 16.7606 8.87895C16.5239 8.9184 16.3267 8.72115 16.3267 8.64225C16.307 8.54362 16.4845 8.445 16.7212 8.42527C16.9382 8.38582 17.1354 8.42527 17.1551 8.5239Z" fill="white"/>
<path d="M16.7015 8.93809C16.4648 8.93809 16.2873 8.76056 16.2675 8.64221C16.2478 8.50414 16.4648 8.40551 16.7015 8.36606C16.9382 8.32661 17.1749 8.36606 17.1946 8.50414C17.1946 8.56331 17.1552 8.66194 17.0763 8.74084C17.0171 8.80001 16.9185 8.89864 16.7607 8.91836C16.7409 8.93809 16.7212 8.93809 16.7015 8.93809ZM16.8593 8.44496C16.8198 8.44496 16.7804 8.44496 16.7212 8.46469C16.4845 8.50414 16.3662 8.60276 16.3662 8.64221C16.3662 8.70139 16.5437 8.87891 16.7607 8.83946C16.879 8.81974 16.9776 8.74084 17.0171 8.70139C17.096 8.62249 17.1157 8.56331 17.1157 8.54359C17.096 8.50414 17.0171 8.44496 16.8593 8.44496Z" fill="white"/>
<path d="M17.4905 13.7313C17.4313 13.7313 17.3919 13.7115 17.3327 13.6918C17.2144 13.6129 17.1749 13.4354 17.2538 13.317C17.7864 12.5083 17.6878 11.6799 17.5891 10.8909C17.5497 10.5555 17.5102 10.2005 17.5102 9.84543C17.53 9.49038 17.5694 9.21423 17.6089 8.93808C17.668 8.60276 17.7075 8.30688 17.6878 7.93211C17.6878 7.77431 17.8061 7.65596 17.9442 7.63623C18.102 7.63623 18.2203 7.75458 18.2401 7.89266C18.2598 8.32661 18.2006 8.66193 18.1612 9.01698C18.1217 9.27341 18.0823 9.54956 18.0625 9.86516C18.0625 10.161 18.0823 10.4766 18.1217 10.812C18.2203 11.6601 18.3387 12.6267 17.6878 13.6129C17.668 13.6721 17.5694 13.7313 17.4905 13.7313Z" fill="white"/>
</svg>
