<svg width="24" height="24" viewBox="0 0 24 24" fill="none" xmlns="http://www.w3.org/2000/svg">
<path fill-rule="evenodd" clip-rule="evenodd" d="M10.4905 6.42776C11.0711 5.79928 11.8792 5.40948 12.7731 5.40948C13.9613 5.40948 14.998 6.09791 15.55 7.1199C16.0298 6.89719 16.5608 6.77329 17.1195 6.77329C19.2626 6.77329 21 8.5943 21 10.8405C21 13.087 19.2626 14.908 17.1195 14.908C16.8628 14.9081 16.6068 14.8816 16.3552 14.8288C15.869 15.7298 14.9426 16.3386 13.8793 16.3386C13.4341 16.3386 13.0131 16.2318 12.6382 16.0419C12.1454 17.2463 10.9972 18.0909 9.65897 18.0909C8.26539 18.0909 7.0777 17.1747 6.6218 15.8897C6.42258 15.9337 6.21617 15.9566 6.00436 15.9566C4.34513 15.9566 3 14.5445 3 12.8024C3 11.635 3.60436 10.6156 4.5023 10.0703C4.31744 9.62829 4.21462 9.14046 4.21462 8.62759C4.21462 6.62409 5.78 5 7.71077 5C8.84436 5 9.85181 5.56002 10.4905 6.42776Z" fill="#00A1E0"/>
<path d="M8.31809 12.3636C8.9959 12.3636 9.54537 11.8141 9.54537 11.1363C9.54537 10.4585 8.9959 9.90906 8.31809 9.90906C7.64029 9.90906 7.09082 10.4585 7.09082 11.1363C7.09082 11.8141 7.64029 12.3636 8.31809 12.3636Z" fill="white"/>
<path d="M12.4092 12.3636C13.087 12.3636 13.6364 11.8141 13.6364 11.1363C13.6364 10.4585 13.087 9.90906 12.4092 9.90906C11.7314 9.90906 11.1819 10.4585 11.1819 11.1363C11.1819 11.8141 11.7314 12.3636 12.4092 12.3636Z" fill="white"/>
<path d="M16.5 12.3636C17.1778 12.3636 17.7273 11.8141 17.7273 11.1363C17.7273 10.4585 17.1778 9.90906 16.5 9.90906C15.8222 9.90906 15.2727 10.4585 15.2727 11.1363C15.2727 11.8141 15.8222 12.3636 16.5 12.3636Z" fill="white"/>
</svg>
