<svg width="63" height="63" viewBox="0 0 63 63" fill="none" xmlns="http://www.w3.org/2000/svg">
<path d="M30.24 23.751C30.24 27.279 27.279 30.24 23.751 30.24C20.223 30.24 17.262 27.279 17.262 23.751C17.262 20.223 20.16 17.199 23.751 17.199C27.342 17.199 30.24 20.16 30.24 23.751ZM23.751 32.76C20.16 32.76 17.262 35.721 17.262 39.249C17.262 42.777 20.16 45.801 23.751 45.801C27.342 45.801 30.24 42.84 30.24 39.249C30.24 35.658 27.279 32.76 23.751 32.76ZM63 31.5C63 48.951 48.951 63 31.5 63C14.049 63 0 48.951 0 31.5C0 14.049 14.049 0 31.5 0C48.951 0 63 14.049 63 31.5ZM54.621 31.5C54.621 18.711 44.352 8.379 31.5 8.379C18.648 8.379 8.379 18.711 8.379 31.5C8.379 44.289 18.711 54.621 31.5 54.621C44.289 54.621 54.621 44.289 54.621 31.5ZM39.249 32.76C35.721 32.76 32.76 35.721 32.76 39.249C32.76 42.777 35.721 45.738 39.249 45.738C42.777 45.738 45.801 42.84 45.801 39.249C45.801 35.658 42.84 32.76 39.249 32.76ZM39.249 17.199C35.721 17.199 32.76 20.16 32.76 23.751C32.76 27.342 35.721 30.24 39.249 30.24C42.777 30.24 45.738 27.279 45.738 23.751C45.738 20.223 42.84 17.199 39.249 17.199Z" fill="#F22F46"/>
</svg>
